<svg xmlns="http://www.w3.org/2000/svg" viewBox="0 0 96 96" fill="none">
  <rect x="4" y="4" width="88" height="88" rx="22" fill="#0b1220"></rect>
  <path fill-rule="evenodd" d="M42 14h18c9 0 16 6 16 14 0 6-3 11-8 13 6 2 10 7 10 14 0 9-7 17-17 17H42V14Zm8 9v18h11c5 0 9-3 9-9s-4-9-9-9H50Zm0 27v22h13c6 0 10-4 10-11s-4-11-10-11H50Z" fill="#10b981"></path>
  <path d="M55 27c5-1 10 2 10 6 0 3-2 6-5 7" stroke="#10b981" stroke-width="2.6" stroke-linecap="round" fill="none"></path>
  <g fill="#10b981">
    <rect x="22" y="11" width="2.6" height="13" rx="1.2"></rect>
    <rect x="28" y="11" width="2.6" height="13" rx="1.2"></rect>
    <rect x="34" y="11" width="2.6" height="13" rx="1.2"></rect>
    <path d="M20 24h20v3c0 5-3 9-7 10v33a3 3 0 1 1-6 0V37c-4-1-7-5-7-10v-3Z"></path>
  </g>
</svg>