<svg xmlns="http://www.w3.org/2000/svg" viewBox="0 0 96 96" fill="none">
  <defs>
    <linearGradient id="bsg" x1="0" y1="0" x2="1" y2="1">
      <stop offset="0%" stop-color="#34d399"></stop>
      <stop offset="100%" stop-color="#10b981"></stop>
    </linearGradient>
  </defs>
  <path d="M48 8a40 40 0 0 1 0 80" stroke="url(#bsg)" stroke-width="8" stroke-linecap="round" fill="none"></path>
  <path d="M48 88a40 40 0 0 1 0-80" stroke="#cfd6e4" stroke-width="8" stroke-linecap="round" fill="none" opacity="0.35"></path>
  <path d="M36 28h16a10 10 0 0 1 6 18 11 11 0 0 1-4 22H36V28Zm8 7v11h8a5.5 5.5 0 0 0 0-11h-8Zm0 18v12h10a6 6 0 0 0 0-12H44Z" fill="#ffffff"></path>
</svg>